<svg width="270" height="135" viewBox="0 0 270 135" fill="none" xmlns="http://www.w3.org/2000/svg">
<path d="M21.2746 55.4122H11.1517V6.88899H38.9647V15.3192H21.2746V27.8317H37.7366V36.2286H21.2746V55.4122Z" fill="black"/>
<path d="M58.0048 18.3062V55.4122H47.882V18.3062H58.0048ZM52.96 3.76917C54.4646 3.76917 55.759 4.12319 56.8432 4.83123C57.9274 5.51715 58.4695 6.81155 58.4695 8.71442C58.4695 10.5952 57.9274 11.9006 56.8432 12.6308C55.759 13.3388 54.4646 13.6929 52.96 13.6929C51.4333 13.6929 50.1278 13.3388 49.0436 12.6308C47.9816 11.9006 47.4505 10.5952 47.4505 8.71442C47.4505 6.81155 47.9816 5.51715 49.0436 4.83123C50.1278 4.12319 51.4333 3.76917 52.96 3.76917Z" fill="black"/>
<path d="M84.5127 48.011C85.619 48.011 86.6921 47.9003 87.7321 47.6791C88.7941 47.4578 89.8451 47.1812 90.8851 46.8493V54.3834C89.8009 54.8701 88.4512 55.2684 86.8359 55.5782C85.2428 55.9101 83.4949 56.076 81.592 56.076C79.3793 56.076 77.388 55.722 75.6178 55.014C73.8699 54.2838 72.487 53.0337 71.4691 51.2635C70.4734 49.4713 69.9756 46.9821 69.9756 43.7959V25.9067H65.1299V21.6252L70.7058 18.2398L73.6265 10.4071H80.0984V18.3062H90.4868V25.9067H80.0984V43.7959C80.0984 45.212 80.4967 46.274 81.2933 46.9821C82.1119 47.668 83.1851 48.011 84.5127 48.011Z" fill="black"/>
<path d="M6.0737 132.484C4.74612 132.484 3.58448 132.407 2.58879 132.252C1.57098 132.119 0.708046 131.953 0 131.754V123.191C0.708046 123.346 1.47141 123.49 2.29009 123.623C3.08664 123.778 3.9385 123.855 4.84569 123.855C6.04051 123.855 7.11365 123.623 8.06508 123.158C9.01652 122.716 9.76882 121.864 10.322 120.602C10.8751 119.341 11.1517 117.527 11.1517 115.159V69.6896H21.4405V115.093C21.4405 119.253 20.7878 122.605 19.4823 125.149C18.199 127.716 16.3957 129.575 14.0724 130.725C11.7713 131.898 9.10502 132.484 6.0737 132.484Z" fill="black"/>
<path d="M66.8001 99.5934C66.8001 102.691 66.3797 105.435 65.5389 107.824C64.7202 110.214 63.5143 112.239 61.9212 113.898C60.3502 115.536 58.4473 116.775 56.2126 117.615C53.9999 118.456 51.4996 118.877 48.7117 118.877C46.1008 118.877 43.7001 118.456 41.5096 117.615C39.3412 116.775 37.4494 115.536 35.8341 113.898C34.241 112.239 33.0019 110.214 32.1169 107.824C31.254 105.435 30.8225 102.691 30.8225 99.5934C30.8225 95.4779 31.5527 91.993 33.013 89.1387C34.4734 86.2844 36.5532 84.116 39.2527 82.6335C41.9521 81.1511 45.1715 80.4098 48.9109 80.4098C52.3847 80.4098 55.4603 81.1511 58.1376 82.6335C60.837 84.116 62.9501 86.2844 64.4768 89.1387C66.0256 91.993 66.8001 95.4779 66.8001 99.5934ZM41.1445 99.5934C41.1445 102.027 41.41 104.074 41.941 105.734C42.4721 107.393 43.3018 108.643 44.4302 109.484C45.5587 110.325 47.0301 110.745 48.8445 110.745C50.6367 110.745 52.086 110.325 53.1923 109.484C54.3208 108.643 55.1394 107.393 55.6483 105.734C56.1794 104.074 56.4449 102.027 56.4449 99.5934C56.4449 97.1374 56.1794 95.1018 55.6483 93.4865C55.1394 91.8492 54.3208 90.6212 53.1923 89.8025C52.0639 88.9838 50.5925 88.5745 48.7781 88.5745C46.1008 88.5745 44.1537 89.4927 42.9367 91.3292C41.7419 93.1657 41.1445 95.9205 41.1445 99.5934Z" fill="black"/>
<path d="M109.438 81.1068V118.213H101.672L100.311 113.467H99.7799C98.9833 114.728 97.9876 115.757 96.7928 116.553C95.598 117.35 94.2815 117.936 92.8432 118.312C91.405 118.689 89.9115 118.877 88.3626 118.877C85.7075 118.877 83.3953 118.412 81.426 117.483C79.4568 116.531 77.919 115.06 76.8127 113.068C75.7285 111.077 75.1864 108.488 75.1864 105.302V81.1068H85.3092V102.78C85.3092 105.435 85.7849 107.437 86.7364 108.787C87.6878 110.137 89.2035 110.812 91.2833 110.812C93.3411 110.812 94.9563 110.347 96.129 109.418C97.3017 108.466 98.1204 107.083 98.5851 105.269C99.0718 103.432 99.3152 101.198 99.3152 98.5646V81.1068H109.438Z" fill="black"/>
<path d="M140.991 80.4098C141.5 80.4098 142.086 80.443 142.75 80.5094C143.436 80.5536 143.989 80.62 144.409 80.7085L143.646 90.2008C143.314 90.0901 142.838 90.0127 142.219 89.9684C141.621 89.9021 141.101 89.8689 140.659 89.8689C139.353 89.8689 138.081 90.0348 136.842 90.3667C135.625 90.6986 134.53 91.2407 133.556 91.993C132.583 92.7232 131.808 93.6967 131.233 94.9137C130.68 96.1085 130.403 97.5799 130.403 99.3279V118.213H120.28V81.1068H127.947L129.441 87.3465H129.939C130.669 86.0853 131.576 84.9347 132.66 83.8947C133.766 82.8327 135.017 81.9919 136.411 81.3723C137.827 80.7307 139.353 80.4098 140.991 80.4098Z" fill="black"/>
<path d="M172.444 80.4098C176.404 80.4098 179.591 81.494 182.002 83.6624C184.414 85.8087 185.62 89.2604 185.62 94.0176V118.213H175.497V96.54C175.497 93.8848 175.01 91.8824 174.037 90.5327C173.085 89.183 171.581 88.5081 169.523 88.5081C166.425 88.5081 164.312 89.5591 163.184 91.6611C162.055 93.7631 161.491 96.7944 161.491 100.755V118.213H151.368V81.1068H159.102L160.462 85.8529H161.027C161.823 84.5696 162.808 83.5297 163.98 82.7331C165.175 81.9366 166.492 81.3502 167.93 80.9741C169.39 80.5979 170.895 80.4098 172.444 80.4098Z" fill="black"/>
<path d="M211.564 80.4098C214.993 80.4098 217.947 81.0736 220.425 82.4012C222.904 83.7067 224.817 85.6095 226.167 88.1098C227.517 90.6101 228.192 93.6636 228.192 97.2702V102.182H204.262C204.373 105.037 205.225 107.282 206.818 108.92C208.433 110.535 210.668 111.343 213.522 111.343C215.889 111.343 218.058 111.099 220.027 110.612C221.996 110.126 224.021 109.395 226.101 108.422V116.255C224.264 117.162 222.339 117.826 220.326 118.246C218.334 118.666 215.912 118.877 213.057 118.877C209.34 118.877 206.043 118.191 203.167 116.819C200.312 115.447 198.067 113.356 196.429 110.546C194.814 107.736 194.006 104.196 194.006 99.9253C194.006 95.5886 194.737 91.9819 196.197 89.1055C197.679 86.207 199.737 84.0386 202.37 82.6003C205.003 81.14 208.068 80.4098 211.564 80.4098ZM211.63 87.612C209.661 87.612 208.024 88.2426 206.718 89.5038C205.435 90.765 204.693 92.7453 204.494 95.4447H218.7C218.677 93.9401 218.401 92.6015 217.87 91.4288C217.361 90.2561 216.586 89.3268 215.546 88.6409C214.529 87.9549 213.223 87.612 211.63 87.612Z" fill="black"/>
<path d="M231.334 81.1068H242.419L249.422 101.983C249.644 102.647 249.832 103.322 249.987 104.008C250.142 104.694 250.274 105.402 250.385 106.132C250.496 106.862 250.584 107.625 250.65 108.422H250.85C250.982 107.227 251.159 106.11 251.381 105.07C251.624 104.03 251.923 103.001 252.277 101.983L259.147 81.1068H270L254.301 122.959C253.35 125.526 252.111 127.661 250.584 129.365C249.057 131.09 247.298 132.385 245.307 133.248C243.338 134.111 241.169 134.542 238.802 134.542C237.651 134.542 236.655 134.476 235.815 134.343C234.974 134.232 234.255 134.111 233.657 133.978V125.946C234.122 126.057 234.708 126.156 235.416 126.245C236.124 126.333 236.866 126.377 237.64 126.377C239.056 126.377 240.273 126.079 241.291 125.481C242.309 124.884 243.161 124.076 243.847 123.059C244.532 122.063 245.075 120.968 245.473 119.773L246.07 117.947L231.334 81.1068Z" fill="black"/>
<path d="M239.208 26.2654H235.467V14.5919C235.467 13.0439 234.679 11.5593 233.276 10.4647C231.874 9.37008 229.971 8.75514 227.987 8.75514H220.506V5.83676C220.506 4.28875 219.718 2.80415 218.315 1.70955C216.912 0.614942 215.009 0 213.025 0H201.805C199.821 0 197.918 0.614942 196.515 1.70955C195.112 2.80415 194.324 4.28875 194.324 5.83676V26.2654H171.882V5.83676C171.882 4.28875 171.094 2.80415 169.691 1.70955C168.288 0.614942 166.385 0 164.401 0H153.18C151.196 0 149.294 0.614942 147.891 1.70955C146.488 2.80415 145.7 4.28875 145.7 5.83676V8.75514H138.219C136.235 8.75514 134.332 9.37008 132.929 10.4647C131.526 11.5593 130.738 13.0439 130.738 14.5919V26.2654H126.998C126.006 26.2654 125.055 26.5729 124.353 27.1202C123.652 27.6675 123.258 28.4098 123.258 29.1838C123.258 29.9578 123.652 30.7001 124.353 31.2474C125.055 31.7947 126.006 32.1022 126.998 32.1022H130.738V43.7757C130.738 45.3237 131.526 46.8083 132.929 47.9029C134.332 48.9975 136.235 49.6124 138.219 49.6124H145.7V52.5308C145.7 54.0788 146.488 55.5634 147.891 56.658C149.294 57.7526 151.196 58.3676 153.18 58.3676H164.401C166.385 58.3676 168.288 57.7526 169.691 56.658C171.094 55.5634 171.882 54.0788 171.882 52.5308V32.1022H194.324V52.5308C194.324 54.0788 195.112 55.5634 196.515 56.658C197.918 57.7526 199.821 58.3676 201.805 58.3676H213.025C215.009 58.3676 216.912 57.7526 218.315 56.658C219.718 55.5634 220.506 54.0788 220.506 52.5308V49.6124H227.987C229.971 49.6124 231.874 48.9975 233.276 47.9029C234.679 46.8083 235.467 45.3237 235.467 43.7757V32.1022H239.208C240.2 32.1022 241.151 31.7947 241.853 31.2474C242.554 30.7001 242.948 29.9578 242.948 29.1838C242.948 28.4098 242.554 27.6675 241.853 27.1202C241.151 26.5729 240.2 26.2654 239.208 26.2654ZM138.219 43.7757V14.5919H145.7V43.7757H138.219ZM164.401 52.5308H153.18V5.83676H164.401V52.5308ZM213.025 52.5308H201.805V5.83676H213.025V46.6284C213.025 46.6503 213.025 46.6722 213.025 46.6941C213.025 46.716 213.025 46.7378 213.025 46.7597V52.5308ZM227.987 43.7757H220.506V14.5919H227.987V43.7757Z" fill="black"/>
</svg>
