<svg width="300" height="197" viewBox="0 0 300 197" fill="none" xmlns="http://www.w3.org/2000/svg">
<g clip-path="url(#clip0_280_1177)">
<path d="M177.142 12.946H143.987V13.5777H177.142V12.946Z" fill="#CCCCCC"/>
<path d="M118.094 12.946H12.946V13.5777H118.094V12.946Z" fill="#CCCCCC"/>
<path d="M12.946 26.2078C20.096 26.2078 25.8921 20.4116 25.8921 13.2617C25.8921 6.11182 20.096 0.315674 12.946 0.315674C5.79614 0.315674 0 6.11182 0 13.2617C0 20.4116 5.79614 26.2078 12.946 26.2078Z" fill="#FACC15"/>
<path d="M71.9932 26.2078C79.1431 26.2078 84.9392 20.4116 84.9392 13.2617C84.9392 6.11182 79.1431 0.315674 71.9932 0.315674C64.8433 0.315674 59.0471 6.11182 59.0471 13.2617C59.0471 20.4116 64.8433 26.2078 71.9932 26.2078Z" fill="#3F3D56"/>
<path d="M131.039 26.5241C128.416 26.5241 125.852 25.7463 123.671 24.289C121.49 22.8317 119.79 20.7605 118.786 18.3372C117.783 15.9139 117.52 13.2473 118.032 10.6747C118.544 8.10215 119.807 5.73909 121.661 3.88436C123.516 2.02964 125.879 0.766551 128.452 0.254833C131.024 -0.256885 133.691 0.00574353 136.114 1.00951C138.537 2.01329 140.609 3.71311 142.066 5.89404C143.523 8.07497 144.301 10.639 144.301 13.262C144.301 16.7793 142.904 20.1526 140.417 22.6397C137.93 25.1268 134.556 26.5241 131.039 26.5241ZM131.039 0.631613C128.541 0.631613 126.099 1.37238 124.022 2.76022C121.945 4.14807 120.326 6.12067 119.37 8.42858C118.414 10.7365 118.164 13.276 118.651 15.7261C119.139 18.1762 120.342 20.4267 122.108 22.1931C123.874 23.9595 126.125 25.1624 128.575 25.6498C131.025 26.1371 133.565 25.887 135.872 24.931C138.18 23.975 140.153 22.3562 141.541 20.2791C142.929 18.2021 143.669 15.7601 143.669 13.262C143.669 9.91223 142.339 6.69964 139.97 4.33098C137.601 1.96232 134.389 0.631613 131.039 0.631613Z" fill="#CCCCCC"/>
<path d="M190.086 26.5241C187.463 26.5241 184.899 25.7463 182.718 24.289C180.537 22.8317 178.837 20.7605 177.834 18.3372C176.83 15.9139 176.567 13.2473 177.079 10.6747C177.591 8.10215 178.854 5.73909 180.708 3.88436C182.563 2.02964 184.926 0.766551 187.499 0.254833C190.071 -0.256885 192.738 0.00574353 195.161 1.00951C197.585 2.01329 199.656 3.71311 201.113 5.89404C202.57 8.07497 203.348 10.639 203.348 13.262C203.348 16.7793 201.951 20.1526 199.464 22.6397C196.977 25.1268 193.603 26.5241 190.086 26.5241ZM190.086 0.631613C187.588 0.631613 185.146 1.37238 183.069 2.76022C180.992 4.14807 179.373 6.12067 178.417 8.42858C177.461 10.7365 177.211 13.276 177.698 15.7261C178.186 18.1762 179.389 20.4267 181.155 22.1931C182.921 23.9595 185.172 25.1624 187.622 25.6498C190.072 26.1371 192.612 25.887 194.92 24.931C197.227 23.975 199.2 22.3562 200.588 20.2791C201.976 18.2021 202.717 15.7601 202.717 13.262C202.717 11.6034 202.39 9.96097 201.755 8.42858C201.12 6.89619 200.19 5.50382 199.017 4.33098C197.844 3.15814 196.452 2.22778 194.92 1.59305C193.387 0.958308 191.745 0.631613 190.086 0.631613Z" fill="#CCCCCC"/>
<path d="M11.9494 17.1218C11.722 17.122 11.5007 17.0482 11.3188 16.9116L11.3076 16.9032L8.9315 15.0858C8.70926 14.9154 8.56381 14.6637 8.52716 14.3861C8.4905 14.1084 8.56563 13.8276 8.73602 13.6054C8.90641 13.3831 9.15811 13.2377 9.43574 13.201C9.71337 13.1644 9.9942 13.2395 10.2164 13.4099L11.7553 14.5901L15.3919 9.8455C15.5622 9.62338 15.8138 9.478 16.0913 9.44135C16.3688 9.40469 16.6495 9.47975 16.8716 9.65003L16.8492 9.68121L16.8723 9.65003C17.0943 9.82057 17.2394 10.0722 17.276 10.3497C17.3126 10.6272 17.2376 10.9079 17.0674 11.1301L12.7898 16.7081C12.6907 16.8367 12.5633 16.9407 12.4175 17.0121C12.2717 17.0835 12.1114 17.1203 11.9491 17.1197L11.9494 17.1218Z" fill="white"/>
<path d="M230.006 68.6467C230.248 68.7572 230.481 68.887 230.702 69.0348L252.826 59.5926L253.615 53.7648L262.455 53.7105L261.933 67.0776L232.732 74.8009C232.671 75.0037 232.597 75.2026 232.511 75.3964C232.089 76.2973 231.41 77.0533 230.559 77.5695C229.709 78.0857 228.725 78.3391 227.731 78.2979C226.737 78.2567 225.777 77.9227 224.972 77.3378C224.167 76.753 223.553 75.9434 223.207 75.0107C222.861 74.078 222.798 73.0638 223.026 72.0954C223.255 71.1271 223.764 70.2478 224.49 69.568C225.217 68.8882 226.128 68.4382 227.109 68.2744C228.09 68.1107 229.098 68.2406 230.006 68.6477L230.006 68.6467Z" fill="#FEB8B8"/>
<path d="M265.67 189.77H259.623L256.746 166.445H265.671L265.67 189.77Z" fill="#FEB8B8"/>
<path d="M255.303 188.042H266.966V195.383H247.96C247.96 193.436 248.734 191.568 250.111 190.191C251.488 188.814 253.356 188.04 255.303 188.04V188.042Z" fill="#2F2E41"/>
<path d="M289.188 188.062L283.171 188.654L278.021 165.723L286.903 164.85L289.188 188.062Z" fill="#FEB8B8"/>
<path d="M278.699 187.36L290.303 186.217L291.023 193.523L272.113 195.386C271.922 193.448 272.508 191.514 273.743 190.009C274.978 188.504 276.761 187.551 278.698 187.36H278.699Z" fill="#2F2E41"/>
<path d="M267.353 29.0246C274.044 29.0246 279.468 23.6006 279.468 16.9098C279.468 10.219 274.044 4.79504 267.353 4.79504C260.662 4.79504 255.238 10.219 255.238 16.9098C255.238 23.6006 260.662 29.0246 267.353 29.0246Z" fill="#FEB8B8"/>
<path d="M258.271 185.053C257.751 185.054 257.248 184.871 256.849 184.537C256.451 184.204 256.183 183.74 256.093 183.228C252.965 165.856 242.732 109.042 242.487 107.467C242.482 107.431 242.479 107.394 242.479 107.358V103.121C242.479 102.967 242.527 102.816 242.617 102.691L243.968 100.799C244.033 100.708 244.117 100.633 244.215 100.579C244.313 100.526 244.421 100.496 244.533 100.491C252.239 100.13 277.474 99.0707 278.693 100.594C279.918 102.123 279.483 106.763 279.384 107.677L279.389 107.772L290.727 180.28C290.816 180.859 290.673 181.449 290.33 181.923C289.987 182.397 289.471 182.717 288.894 182.813L281.813 183.979C281.285 184.064 280.745 183.957 280.29 183.677C279.835 183.397 279.496 182.963 279.334 182.454C277.144 175.455 269.8 151.912 267.254 142.802C267.241 142.742 267.205 142.69 267.154 142.655C267.103 142.62 267.041 142.605 266.98 142.614C266.919 142.623 266.864 142.655 266.825 142.702C266.786 142.75 266.767 142.811 266.771 142.872C266.898 151.557 267.205 173.712 267.313 181.365L267.325 182.189C267.329 182.747 267.124 183.286 266.751 183.701C266.377 184.115 265.861 184.374 265.306 184.426L258.477 185.045C258.409 185.051 258.34 185.054 258.271 185.053Z" fill="#2F2E41"/>
<path d="M259.665 33.7884C257.55 35.0453 256.285 37.3546 255.559 39.7087C254.215 44.0598 253.406 48.5584 253.15 53.1052L252.383 66.7179L242.885 102.81C251.117 109.775 255.865 108.191 266.946 102.494C278.027 96.7972 279.294 104.394 279.294 104.394L281.509 73.6845L284.675 40.1273C283.964 39.2716 283.16 38.4983 282.277 37.8219C279.351 35.546 275.946 33.964 272.32 33.195C268.693 32.426 264.94 32.4901 261.342 33.3824L259.665 33.7884Z" fill="#E6E6E6"/>
<path d="M256.58 75.9355C256.835 76.0311 257.082 76.1466 257.32 76.281L279.195 65.3306L279.558 59.3988L288.582 58.7767L289.065 72.2986L259.832 81.9672C259.594 82.9916 259.049 83.9191 258.27 84.6263C257.492 85.3335 256.516 85.7869 255.474 85.9262C254.431 86.0655 253.371 85.884 252.434 85.4059C251.497 84.9279 250.728 84.1759 250.229 83.25C249.73 82.3242 249.525 81.2683 249.64 80.2229C249.756 79.1774 250.188 78.1921 250.877 77.3978C251.567 76.6035 252.482 76.038 253.5 75.7765C254.519 75.5149 255.593 75.5698 256.58 75.9338L256.58 75.9355Z" fill="#FEB8B8"/>
<path d="M284.517 40.2786C289.899 42.1779 290.848 62.7583 290.848 62.7583C284.516 59.2759 276.918 64.9743 276.918 64.9743C276.918 64.9743 275.335 59.5918 273.435 52.6273C272.862 50.6682 272.793 48.5958 273.236 46.603C273.679 44.6102 274.618 42.7619 275.968 41.23C275.968 41.23 279.135 38.3781 284.517 40.2786Z" fill="#E6E6E6"/>
<path d="M278.214 20.1126C276.704 18.9051 274.645 21.0991 274.645 21.0991L273.438 10.2339C273.438 10.2339 265.891 11.1381 261.06 9.93194C256.229 8.72583 255.475 14.3108 255.475 14.3108C255.226 12.0553 255.175 9.78229 255.324 7.51795C255.626 4.80095 259.55 2.08395 266.494 0.2725C273.437 -1.53895 277.06 6.31044 277.06 6.31044C281.892 8.72372 279.725 21.3216 278.214 20.1126Z" fill="#2F2E41"/>
<path d="M300 195.385H41.6869V196.152H300V195.385Z" fill="#E6E6E6"/>
<path d="M66.6062 181.837C67.7115 182.226 68.8983 182.323 70.0522 182.12C71.206 181.917 72.2881 181.42 73.1941 180.677C75.5016 178.74 76.225 175.55 76.8135 172.595L78.5545 163.857L74.9096 166.367C72.2882 168.171 69.608 170.034 67.7927 172.649C65.9774 175.263 65.1853 178.832 66.6437 181.661" fill="#E6E6E6"/>
<path d="M67.169 193.025C66.7101 189.683 66.2383 186.297 66.5602 182.919C66.8461 179.918 67.7614 176.988 69.6251 174.585C70.6142 173.312 71.8178 172.222 73.1818 171.362C73.5373 171.138 73.8649 171.702 73.5107 171.925C71.1502 173.416 69.3243 175.619 68.2963 178.215C67.1613 181.102 66.9792 184.249 67.1753 187.315C67.2938 189.169 67.5442 191.012 67.7968 192.851C67.8167 192.935 67.8042 193.022 67.7619 193.097C67.7197 193.171 67.6508 193.227 67.5691 193.252C67.4858 193.275 67.397 193.263 67.322 193.221C67.2469 193.178 67.1917 193.108 67.1683 193.025L67.169 193.025Z" fill="#F2F2F2"/>
<path d="M70.4714 187.662C70.9455 188.383 71.5971 188.969 72.3635 189.364C73.1299 189.76 73.9852 189.951 74.8472 189.92C77.0622 189.815 78.909 188.269 80.5712 186.803L85.4882 182.462L82.2341 182.306C79.8941 182.194 77.4934 182.09 75.263 182.811C73.0326 183.533 70.9783 185.27 70.5709 187.576" fill="#E6E6E6"/>
<path d="M65.8723 194.947C68.0792 191.039 70.6428 186.695 75.2203 185.307C76.4931 184.922 77.8276 184.784 79.1522 184.901C79.5697 184.936 79.4653 185.58 79.0471 185.544C76.8268 185.36 74.6109 185.946 72.7723 187.204C71.0029 188.409 69.6255 190.083 68.4597 191.859C67.7454 192.945 67.1057 194.08 66.466 195.212C66.2622 195.574 65.6666 195.313 65.8723 194.947Z" fill="#F2F2F2"/>
<path d="M221.542 82.1817H110.954C110.411 82.181 109.89 81.965 109.506 81.5811C109.122 81.1972 108.906 80.6767 108.906 80.1337V52.7014C108.906 52.1584 109.122 51.6379 109.506 51.254C109.89 50.8701 110.411 50.6541 110.954 50.6534H221.542C222.085 50.6541 222.606 50.8701 222.99 51.254C223.374 51.6379 223.59 52.1584 223.59 52.7014V80.1337C223.59 80.6767 223.374 81.1972 222.99 81.5811C222.606 81.965 222.085 82.181 221.542 82.1817ZM110.954 51.4728C110.628 51.4732 110.315 51.6028 110.085 51.8332C109.855 52.0635 109.725 52.3759 109.725 52.7017V80.1341C109.725 80.4599 109.855 80.7723 110.085 81.0027C110.315 81.2331 110.628 81.3627 110.954 81.363H221.542C221.868 81.3627 222.181 81.2331 222.411 81.0027C222.642 80.7723 222.771 80.4599 222.771 80.1341V52.7014C222.771 52.3755 222.642 52.0631 222.411 51.8327C222.181 51.6023 221.868 51.4727 221.542 51.4724L110.954 51.4728Z" fill="#E6E6E6"/>
<path d="M147.404 59.8032C147.035 59.8032 146.681 59.9497 146.421 60.2104C146.16 60.4712 146.013 60.8248 146.013 61.1936C146.013 61.5623 146.16 61.9159 146.421 62.1767C146.681 62.4374 147.035 62.5839 147.404 62.5839H212.949C213.318 62.5839 213.672 62.4374 213.933 62.1767C214.193 61.9159 214.34 61.5623 214.34 61.1936C214.34 60.8248 214.193 60.4712 213.933 60.2104C213.672 59.9497 213.318 59.8032 212.949 59.8032H147.404Z" fill="#E6E6E6"/>
<path d="M147.404 68.1458C147.035 68.1458 146.681 68.2923 146.421 68.553C146.16 68.8138 146.013 69.1674 146.013 69.5362C146.013 69.9049 146.16 70.2586 146.421 70.5193C146.681 70.7801 147.035 70.9266 147.404 70.9266H175.608C175.977 70.9266 176.331 70.7801 176.591 70.5193C176.852 70.2586 176.999 69.9049 176.999 69.5362C176.999 69.1674 176.852 68.8138 176.591 68.553C176.331 68.2923 175.977 68.1458 175.608 68.1458H147.404Z" fill="#E6E6E6"/>
<path d="M128.215 73.6439C132.823 73.6439 136.558 69.9089 136.558 65.3016C136.558 60.6943 132.823 56.9594 128.215 56.9594C123.608 56.9594 119.873 60.6943 119.873 65.3016C119.873 69.9089 123.608 73.6439 128.215 73.6439Z" fill="#E6E6E6"/>
<path d="M126.904 69.938C126.624 69.9384 126.351 69.8476 126.127 69.6794L126.113 69.6689L123.185 67.429C122.911 67.2191 122.732 66.9088 122.686 66.5665C122.641 66.2243 122.733 65.878 122.943 65.6039C123.153 65.3298 123.464 65.1504 123.806 65.1051C124.148 65.0597 124.494 65.1522 124.768 65.3622L126.665 66.8163L131.147 60.9697C131.356 60.696 131.666 60.5168 132.008 60.4716C132.35 60.4264 132.696 60.5189 132.97 60.7287L132.942 60.7672L132.971 60.7287C133.244 60.9388 133.423 61.2488 133.468 61.5907C133.514 61.9327 133.421 62.2785 133.212 62.5524L127.941 69.4304C127.819 69.5887 127.662 69.7168 127.482 69.8048C127.303 69.8927 127.106 69.9382 126.906 69.9376L126.904 69.938Z" fill="#FACC15"/>
</g>
<defs>
<clipPath id="clip0_280_1177">
<rect width="300" height="196.152" fill="white"/>
</clipPath>
</defs>
</svg>
