<svg width="300" height="212" viewBox="0 0 300 212" fill="none" xmlns="http://www.w3.org/2000/svg">
<g clip-path="url(#clip0_16_798)">
<path d="M159.737 93.506L158.297 95.734L177.529 108.146L178.969 105.919L159.737 93.506Z" fill="#2F2E41"/>
<path d="M179.922 108.112C182.308 104.42 183.494 100.945 182.571 100.349C181.647 99.7524 178.964 102.262 176.577 105.953C174.191 109.644 173.005 113.12 173.929 113.716C174.852 114.312 177.535 111.803 179.922 108.112Z" fill="#2F2E41"/>
<path d="M160.689 95.6994C163.076 92.008 164.261 88.5323 163.338 87.9362C162.414 87.3401 159.731 89.8493 157.344 93.5407C154.958 97.2321 153.772 100.708 154.696 101.304C155.619 101.9 158.303 99.3908 160.689 95.6994Z" fill="#2F2E41"/>
<path d="M223.374 212C265.693 212 300 209.386 300 206.161C300 202.935 265.693 200.321 223.374 200.321C181.054 200.321 146.747 202.935 146.747 206.161C146.747 209.386 181.054 212 223.374 212Z" fill="#E6E6E6"/>
<path d="M76.6264 184.012C118.946 184.012 153.253 181.397 153.253 178.172C153.253 174.947 118.946 172.333 76.6264 172.333C34.3068 172.333 0 174.947 0 178.172C0 181.397 34.3068 184.012 76.6264 184.012Z" fill="#E6E6E6"/>
<path d="M286.405 178.16C286.154 187.541 284.581 196.841 281.733 205.784C281.668 205.992 281.6 206.196 281.532 206.404H264.096C264.115 206.218 264.133 206.01 264.152 205.784C265.314 192.43 272.017 111.155 264.003 97.2556C264.704 98.3832 287.757 135.728 286.405 178.16Z" fill="#E6E6E6"/>
<path d="M285.097 205.784C284.951 205.992 284.799 206.2 284.644 206.404H271.565C271.664 206.227 271.778 206.02 271.912 205.784C274.073 201.888 280.468 190.237 286.405 178.16C292.786 165.181 298.639 151.709 298.146 146.833C298.298 147.933 302.712 181.456 285.097 205.784Z" fill="#E6E6E6"/>
<path d="M162.861 192.068C162.989 196.83 163.787 201.55 165.233 206.089C165.266 206.195 165.3 206.299 165.335 206.404H174.185C174.176 206.31 174.166 206.204 174.157 206.089C173.567 199.311 170.164 158.057 174.232 151.002C173.877 151.574 162.175 170.53 162.861 192.068Z" fill="#E6E6E6"/>
<path d="M163.525 206.09C163.599 206.195 163.676 206.3 163.755 206.404H170.394C170.344 206.314 170.286 206.209 170.218 206.09C169.121 204.112 165.875 198.198 162.861 192.068C159.623 185.48 156.652 178.642 156.902 176.167C156.825 176.725 154.584 193.741 163.525 206.09Z" fill="#E6E6E6"/>
<path d="M174.157 88.9546C174.157 88.9546 159.371 103.432 165.581 105.205C171.791 106.978 178.888 91.9092 178.888 91.9092L174.157 88.9546Z" fill="#A0616A"/>
<path d="M188.942 137.705L187.168 145.978L200.475 146.569L198.405 137.705H188.942Z" fill="#A0616A"/>
<path d="M230.933 188.82L229.159 197.093L242.465 197.684L240.395 188.82H230.933Z" fill="#A0616A"/>
<path d="M207.572 82.4545L208.755 87.1818C208.755 87.1818 175.931 80.6817 177.705 97.2275C179.48 113.773 187.168 129.728 187.168 129.728C187.168 129.728 186.577 135.046 187.759 135.933C188.942 136.819 187.759 139.774 187.759 139.774C187.759 139.774 198.701 141.251 198.996 138.592C199.155 136.814 199.055 135.023 198.701 133.274C198.701 133.274 199.292 133.274 198.701 130.319C198.109 127.364 195.72 103.536 193.946 100.286C193.946 100.286 209.642 112.296 217.922 110.819C217.922 110.819 216.739 122.637 221.47 138.296C226.201 153.956 226.201 155.729 226.201 155.729C226.201 155.729 231.82 185.57 230.341 189.116L230.045 190.593H240.987C240.987 190.593 240.1 174.933 240.987 172.865C241.874 170.797 241.874 153.069 236.847 144.206C233.287 137.929 233.95 119.728 235.897 112.534C237.532 106.493 237.945 101.844 236.987 95.6591C235.962 89.0454 232.901 85.5883 229.158 82.4545H207.572Z" fill="#2F2E41"/>
<path d="M216.295 37.9877C222.174 37.9877 226.941 33.2256 226.941 27.3512C226.941 21.4768 222.174 16.7146 216.295 16.7146C210.416 16.7146 205.65 21.4768 205.65 27.3512C205.65 33.2256 210.416 37.9877 216.295 37.9877Z" fill="#A0616A"/>
<path d="M213.486 34.8854C213.486 34.8854 216.739 44.3401 216.443 46.1129C216.147 47.8856 225.906 42.5674 225.906 42.5674C225.906 42.5674 222.061 33.1126 223.244 30.4535L213.486 34.8854Z" fill="#A0616A"/>
<path d="M225.314 39.3173L214.964 43.4537L215.556 46.9992C215.556 46.9992 214.669 48.1811 214.964 48.772C215.26 49.3629 211.12 51.7266 211.712 52.613C212.303 53.4993 208.163 57.0449 208.459 57.9312C208.755 58.8176 198.996 64.1359 204.319 74.477C204.319 74.477 207.079 78.0616 206.733 82.3006C206.721 82.4496 206.705 82.5993 206.685 82.7499C206.093 87.1818 229.158 82.159 229.158 82.159V77.1361C229.158 77.1361 231.228 76.2498 230.933 72.4088C230.637 68.5678 228.863 70.3406 230.933 68.2723C233.003 66.2041 233.003 66.4996 232.707 64.7268C232.589 64.0189 232.565 61.4735 232.579 58.671C232.606 52.7497 230.676 46.985 227.088 42.2719L225.314 39.3173Z" fill="#FACC15"/>
<path d="M219.696 46.9992L200.475 67.0905L172.383 89.25L178.592 94.2728L230.341 59.704C230.341 59.704 234.777 40.7946 219.696 46.9992Z" fill="#FACC15"/>
<path d="M189.829 142.137C189.829 142.137 187.759 138.592 186.281 139.774L175.931 148.047C175.931 148.047 157.597 153.365 175.34 157.501C175.34 157.501 185.098 158.979 187.168 157.501C189.238 156.024 192.491 156.319 193.378 156.91C194.265 157.501 205.502 156.615 205.502 154.251C205.502 151.888 199.304 141.557 199.304 141.557C199.304 141.557 195.743 145.683 189.829 142.137Z" fill="#2F2E41"/>
<path d="M231.82 193.252C231.82 193.252 229.75 189.706 228.271 190.888L217.921 199.161C217.921 199.161 199.588 204.479 217.33 208.616C217.33 208.616 227.088 210.093 229.158 208.616C231.228 207.139 234.481 207.434 235.368 208.025C236.255 208.616 247.492 207.73 247.492 205.366C247.492 203.002 241.295 192.672 241.295 192.672C241.295 192.672 237.734 196.797 231.82 193.252Z" fill="#2F2E41"/>
<path d="M203.537 23.1329C203.537 23.1329 205.337 7.3239 220.732 11.8126C220.732 11.8126 231.622 9.59928 235.469 23.1898L239.373 37.4384L237.586 36.5105L236.796 38.3272L233.944 39.1074L232.671 36.6987L232.134 39.6637L212.438 43.6426C212.438 43.6426 219.099 36.038 219.052 24.9004L217.09 27.0534L203.537 23.1329Z" fill="#2F2E41"/>
<path d="M97.758 10.278H73.1345V40.9583H97.758V10.278Z" fill="#2F2E41"/>
<path d="M52.8013 153.391L49.4436 165.738L55.0401 169.853L56.5322 168.731L59.1439 156.01L52.8013 153.391Z" fill="#FFB8B8"/>
<path d="M94.9598 152.268L93.8406 167.234H100.929V153.391L94.9598 152.268Z" fill="#FFB8B8"/>
<path d="M72.5747 57.608V66.5877L86.3791 68.8325L98.3175 63.9687L96.079 58.3562L72.5747 57.608Z" fill="#FFB8B8"/>
<path d="M83.7674 65.091L71.8287 62.8461L68.844 87.166L61.3824 117.472C61.3824 117.472 50.1899 143.289 51.6822 149.275L52.4284 151.146L51.6822 154.513L59.1439 157.506L62.1285 152.642C62.1285 152.642 64.3671 156.01 68.0979 148.901C71.8287 141.792 87.4982 97.6422 87.4982 97.6422L90.1098 105.125C89.4342 107.434 89.3065 109.868 89.7367 112.234C90.4829 115.976 91.229 127.574 91.229 127.574C91.229 127.574 87.1251 147.778 92.7214 149.275L93.8406 153.765L101.675 154.513L103.168 150.023C103.168 150.023 110.629 147.404 108.764 134.309C106.899 121.214 106.152 78.1863 106.152 78.1863L98.8024 60.0122L83.7674 65.091Z" fill="#2F2E41"/>
<path d="M51.6822 164.989C51.6822 164.989 49.8168 163.493 49.0706 163.867C48.3245 164.241 40.4897 174.343 40.4897 174.343C40.4897 174.343 32.2819 180.704 38.2512 181.452C44.2206 182.2 60.6362 173.969 60.6362 172.098C60.6362 170.228 57.1869 165.542 57.1869 165.542C57.1869 165.542 54.6669 167.608 51.6822 164.989Z" fill="#2F2E41"/>
<path d="M93.0945 163.867C93.0945 163.867 99.8099 163.449 100.929 164.593C102.048 165.738 101.675 171.35 101.675 171.35C101.675 171.35 102.422 181.452 96.4522 181.452C90.4829 181.452 91.9752 174.717 91.9752 174.717L93.0945 163.867Z" fill="#2F2E41"/>
<path d="M86.3789 24.6828C91.5302 24.6828 95.706 20.4949 95.706 15.329C95.706 10.163 91.5302 5.97522 86.3789 5.97522C81.2277 5.97522 77.0519 10.163 77.0519 15.329C77.0519 20.4949 81.2277 24.6828 86.3789 24.6828Z" fill="#FFB8B8"/>
<path d="M80.2231 21.1283C80.2231 21.1283 85.4462 27.4889 74.9999 32.3528C64.5536 37.2168 82.4616 57.4209 82.4616 57.4209C82.4616 57.4209 103.354 49.5638 101.489 34.2236C101.489 34.2236 88.804 31.9787 91.7887 21.5024L80.2231 21.1283Z" fill="#FFB8B8"/>
<path d="M74.6268 31.9787C74.6268 31.9787 66.0459 30.8563 65.6728 37.9651C65.2997 45.074 65.6728 62.2849 65.6728 62.2849C65.6728 62.2849 61.942 77.251 63.8074 90.3463C63.8074 90.3463 61.5689 105.686 67.5382 104.938C73.5076 104.19 69.0306 89.2238 69.0306 89.2238L71.6421 64.904L70.5229 46.9448L75.373 36.0944L74.6268 31.9787Z" fill="#FFB8B8"/>
<path d="M99.3225 33.6316C99.3225 33.6316 107.458 33.4753 107.831 39.4617C108.204 45.4481 105.22 63.7815 105.22 63.7815L100.743 66.0264L96.6388 53.3053L99.3225 33.6316Z" fill="#FFB8B8"/>
<path d="M101.675 64.3428L100.929 66.2136L103.168 71.8258C103.168 71.8258 94.2137 78.9347 94.9599 80.4313C95.706 81.9279 99.8099 78.5605 99.8099 78.5605L105.779 81.5538C105.779 81.5538 110.629 76.3156 108.391 71.4517C107.151 68.8368 106.113 66.1308 105.288 63.3573C105.288 63.3573 102.048 63.2204 101.675 64.3428Z" fill="#FFB8B8"/>
<path d="M72.9479 30.6692L71.8287 43.0162C71.8287 43.0162 66.6055 48.2543 72.5749 55.3632L71.8287 60.9754C71.8287 60.9754 85.6328 60.2271 88.2444 60.9754C90.856 61.7237 98.9213 60.373 98.9213 60.373L99.0638 56.1115C99.0638 56.1115 102.795 50.8733 101.675 43.0162C100.556 35.159 101.675 32.5399 101.675 32.5399L99.0638 32.1658C99.0638 32.1658 97.3849 43.5774 85.8193 44.6999C85.8193 44.6999 71.4556 46.0094 75.5595 30.6692L72.9479 30.6692Z" fill="#E6E6E6"/>
<path d="M87.3117 0.175891C87.3117 0.175891 77.6115 -0.427175 75.373 5.62212C73.1345 11.6714 69.2171 14.8472 69.2171 14.8472C69.2171 14.8472 63.0463 19.149 66.1317 26.8281C66.1317 26.8281 56.5323 33.2975 62.8747 39.0443C62.8747 39.0443 62.5016 44.7911 66.2325 48.7231C66.2325 48.7231 69.2171 50.2354 68.0979 51.1428C66.9787 52.0502 75.5596 51.4453 74.8134 43.2788C74.0672 35.1123 79.1039 29.3597 79.1039 29.3597C79.1039 29.3597 74.2538 18.7715 76.4923 15.1419C77.8514 12.9383 78.435 11.295 79.5632 10.3439C80.1917 9.82669 80.7744 9.25637 81.3049 8.63925C81.8053 8.00357 82.4865 7.53407 83.259 7.29247C84.0314 7.05087 84.859 7.0485 85.6328 7.28565C88.9905 8.19304 89.7367 10.9152 89.7367 10.9152C89.7367 10.9152 92.1617 17.4182 96.2657 20.4428C100.37 23.4674 93.0945 28.7605 93.0945 28.7605C93.0945 28.7605 94.359 34.9924 97.6441 38.6819C100.929 42.3714 96.6974 45.5874 96.4522 46.0009C95.8926 46.9448 93.6577 52.9048 102.89 52.9312C102.89 52.9312 105.033 48.4206 108.018 45.6985C111.002 42.9763 108.764 35.1123 108.764 35.1123C108.764 35.1123 113.241 32.3901 108.391 25.7359C108.391 25.7359 109.883 19.6866 105.779 15.7546C105.779 15.7546 99.9965 -1.94135 87.3117 0.175891Z" fill="#2F2E41"/>
<path d="M76.3057 16.6385C76.8208 16.6385 77.2384 15.9684 77.2384 15.1419C77.2384 14.3153 76.8208 13.6453 76.3057 13.6453C75.7906 13.6453 75.373 14.3153 75.373 15.1419C75.373 15.9684 75.7906 16.6385 76.3057 16.6385Z" fill="#FFB8B8"/>
<path d="M31.7565 169.472H8.86093V172.125H31.7565V169.472Z" fill="#2F2E41"/>
<path d="M31.7565 178.755C32.8561 178.755 33.7474 175.193 33.7474 170.798C33.7474 166.404 32.8561 162.841 31.7565 162.841C30.657 162.841 29.7656 166.404 29.7656 170.798C29.7656 175.193 30.657 178.755 31.7565 178.755Z" fill="#2F2E41"/>
<path d="M8.86093 178.755C9.96049 178.755 10.8519 175.193 10.8519 170.798C10.8519 166.404 9.96049 162.841 8.86093 162.841C7.76138 162.841 6.87001 166.404 6.87001 170.798C6.87001 175.193 7.76138 178.755 8.86093 178.755Z" fill="#2F2E41"/>
<path d="M26.3214 169.472H3.42586V172.125H26.3214V169.472Z" fill="#2F2E41"/>
<path d="M26.3214 178.755C27.421 178.755 28.3124 175.193 28.3124 170.798C28.3124 166.404 27.421 162.841 26.3214 162.841C25.2219 162.841 24.3305 166.404 24.3305 170.798C24.3305 175.193 25.2219 178.755 26.3214 178.755Z" fill="#2F2E41"/>
<path d="M3.42586 178.755C4.52542 178.755 5.41678 175.193 5.41678 170.798C5.41678 166.404 4.52542 162.841 3.42586 162.841C2.3263 162.841 1.43494 166.404 1.43494 170.798C1.43494 175.193 2.3263 178.755 3.42586 178.755Z" fill="#2F2E41"/>
<path d="M286.787 196.207H263.892V198.86H286.787V196.207Z" fill="#2F2E41"/>
<path d="M286.787 205.49C287.887 205.49 288.778 201.928 288.778 197.533C288.778 193.139 287.887 189.576 286.787 189.576C285.688 189.576 284.796 193.139 284.796 197.533C284.796 201.928 285.688 205.49 286.787 205.49Z" fill="#2F2E41"/>
<path d="M263.892 205.49C264.991 205.49 265.883 201.928 265.883 197.533C265.883 193.139 264.991 189.576 263.892 189.576C262.792 189.576 261.901 193.139 261.901 197.533C261.901 201.928 262.792 205.49 263.892 205.49Z" fill="#2F2E41"/>
</g>
<defs>
<clipPath id="clip0_16_798">
<rect width="300" height="212" fill="white"/>
</clipPath>
</defs>
</svg>
