<svg width="26" height="26" viewBox="0 0 26 26" fill="none" xmlns="http://www.w3.org/2000/svg">
<g clip-path="url(#clip0_225_449)">
<path fill-rule="evenodd" clip-rule="evenodd" d="M16.9118 6.72099L20.9432 3.42049C18.788 1.63111 16.0195 0.555542 13 0.555542C8.19042 0.555542 4.01815 3.28372 1.94701 7.27685H1.947C1.05742 8.99034 0.555557 10.9363 0.555557 12.9999C0.555557 15.134 1.09232 17.1421 2.03863 18.8973L2.03861 18.8975C4.1405 22.7956 8.26083 25.4445 13 25.4445C15.949 25.4445 18.6581 24.4188 20.7907 22.7047L20.79 22.704L20.7899 22.7039L20.7902 22.7039L20.7909 22.7046C22.9837 20.9418 24.5666 18.4509 25.1724 15.5983C25.3508 14.76 25.4445 13.8909 25.4445 13C25.4445 12.2054 25.37 11.428 25.2271 10.6752H20.0251H13.2736V15.5983H19.928C19.329 17.1969 18.1919 18.5323 16.7369 19.3856L16.7369 19.3859L16.7367 19.3857C15.6407 20.0291 14.3634 20.3977 13 20.3977C9.828 20.3977 7.12236 18.4011 6.07143 15.5963L6.07146 15.5962C5.76788 14.7887 5.60241 13.9134 5.60231 12.9999C5.60231 12.1582 5.74319 11.3494 6.00165 10.5958L6.00169 10.5959C6.99997 7.69054 9.75622 5.60235 13 5.60235C14.4365 5.60235 15.7774 6.01194 16.9118 6.72099Z" fill="white"/>
</g>
<defs>
<clipPath id="clip0_225_449">
<rect width="24.8889" height="24.8889" fill="white" transform="translate(0.555557 0.555542)"/>
</clipPath>
</defs>
</svg>
