<svg width="365" height="92" viewBox="0 0 365 92" fill="none" xmlns="http://www.w3.org/2000/svg">
<rect x="181" y="92" width="92" height="3" transform="rotate(-90 181 92)" fill="#FACC15"/>
<rect x="194" y="78" width="29" height="3" transform="rotate(-90 194 78)" fill="#FACC15"/>
<rect opacity="0.9" x="258" y="78" width="29" height="3" transform="rotate(-90 258 78)" fill="#FACC15"/>
<rect opacity="0.4" x="323" y="78" width="29" height="3" transform="rotate(-90 323 78)" fill="#FACC15"/>
<rect x="207" y="78" width="29" height="3" transform="rotate(-90 207 78)" fill="#FACC15"/>
<rect opacity="0.8" x="271" y="78" width="29" height="3" transform="rotate(-90 271 78)" fill="#FACC15"/>
<rect opacity="0.3" x="336" y="78" width="29" height="3" transform="rotate(-90 336 78)" fill="#FACC15"/>
<rect x="220" y="78" width="29" height="3" transform="rotate(-90 220 78)" fill="#FACC15"/>
<rect opacity="0.7" x="284" y="78" width="29" height="3" transform="rotate(-90 284 78)" fill="#FACC15"/>
<rect opacity="0.2" x="349" y="78" width="29" height="3" transform="rotate(-90 349 78)" fill="#FACC15"/>
<rect x="233" y="78" width="29" height="3" transform="rotate(-90 233 78)" fill="#FACC15"/>
<rect opacity="0.6" x="297" y="78" width="29" height="3" transform="rotate(-90 297 78)" fill="#FACC15"/>
<rect opacity="0.1" x="362" y="78" width="29" height="3" transform="rotate(-90 362 78)" fill="#FACC15"/>
<rect x="246" y="82" width="49" height="3" transform="rotate(-90 246 82)" fill="#FACC15"/>
<rect opacity="0.5" x="310" y="82" width="49" height="3" transform="rotate(-90 310 82)" fill="#FACC15"/>
<rect width="28.75" height="3" transform="matrix(3.04079e-08 -1 -1 -6.28351e-08 171 77.625)" fill="#FACC15"/>
<rect opacity="0.9" width="28.75" height="3" transform="matrix(3.04079e-08 -1 -1 -6.28351e-08 107 77.625)" fill="#FACC15"/>
<rect opacity="0.4" width="28.75" height="3" transform="matrix(3.04079e-08 -1 -1 -6.28351e-08 42 77.625)" fill="#FACC15"/>
<rect width="28.75" height="3" transform="matrix(3.04079e-08 -1 -1 -6.28351e-08 158 77.625)" fill="#FACC15"/>
<rect opacity="0.8" width="28.75" height="3" transform="matrix(3.04079e-08 -1 -1 -6.28351e-08 94 77.625)" fill="#FACC15"/>
<rect opacity="0.3" width="28.75" height="3" transform="matrix(3.04079e-08 -1 -1 -6.28351e-08 29 77.625)" fill="#FACC15"/>
<rect width="28.75" height="3" transform="matrix(3.04079e-08 -1 -1 -6.28351e-08 145 77.625)" fill="#FACC15"/>
<rect opacity="0.7" width="28.75" height="3" transform="matrix(3.04079e-08 -1 -1 -6.28351e-08 81 77.625)" fill="#FACC15"/>
<rect opacity="0.2" width="28.75" height="3" transform="matrix(3.04079e-08 -1 -1 -6.28351e-08 16 77.625)" fill="#FACC15"/>
<rect width="28.75" height="3" transform="matrix(3.04079e-08 -1 -1 -6.28351e-08 132 77.625)" fill="#FACC15"/>
<rect opacity="0.6" width="28.75" height="3" transform="matrix(3.04079e-08 -1 -1 -6.28351e-08 68 77.625)" fill="#FACC15"/>
<rect opacity="0.1" width="28.75" height="3" transform="matrix(3.04079e-08 -1 -1 -6.28351e-08 3 77.625)" fill="#FACC15"/>
<rect width="48.875" height="3" transform="matrix(3.04079e-08 -1 -1 -6.28351e-08 119 81.9375)" fill="#FACC15"/>
<rect opacity="0.5" width="48.875" height="3" transform="matrix(3.04079e-08 -1 -1 -6.28351e-08 55 81.9375)" fill="#FACC15"/>
</svg>
